<svg width="800" viewBox="0 0 680 580" xmlns="http://www.w3.org/2000/svg" style="background:#ffffff;font-family:sans-serif">
<defs>
<marker id="arrow" viewBox="0 0 10 10" refX="8" refY="5" markerWidth="6" markerHeight="6" orient="auto-start-reverse">
<path d="M2 1L8 5L2 9" fill="none" stroke="context-stroke" stroke-width="1.5" stroke-linecap="round" stroke-linejoin="round"/>
</marker>
</defs>

<text font-size="14" font-weight="500" fill="#2c2c2a" x="340" y="30" text-anchor="middle">SQL Data Warehouse — Medallion Architecture</text>

<text font-size="12" fill="#5f5e5a" x="70" y="68" text-anchor="middle">Sources</text>
<rect x="20" y="78" width="100" height="52" rx="8" fill="#f1efe8" stroke="#5f5e5a" stroke-width="0.5"/>
<text font-size="14" font-weight="500" fill="#2c2c2a" x="70" y="100" text-anchor="middle" dominant-baseline="central">CRM</text>
<text font-size="12" fill="#5f5e5a" x="70" y="116" text-anchor="middle" dominant-baseline="central">cust · prd · sales</text>
<rect x="20" y="148" width="100" height="52" rx="8" fill="#f1efe8" stroke="#5f5e5a" stroke-width="0.5"/>
<text font-size="14" font-weight="500" fill="#2c2c2a" x="70" y="170" text-anchor="middle" dominant-baseline="central">ERP</text>
<text font-size="12" fill="#5f5e5a" x="70" y="186" text-anchor="middle" dominant-baseline="central">loc · cust · cat</text>

<line x1="120" y1="104" x2="168" y2="140" stroke="#888780" stroke-width="1.5" marker-end="url(#arrow)" fill="none"/>
<line x1="120" y1="174" x2="168" y2="160" stroke="#888780" stroke-width="1.5" marker-end="url(#arrow)" fill="none"/>

<rect x="168" y="78" width="148" height="122" rx="12" fill="#faeeda" stroke="#854f0b" stroke-width="0.5"/>
<text font-size="14" font-weight="500" fill="#412402" x="242" y="100" text-anchor="middle" dominant-baseline="central">Bronze</text>
<text font-size="12" fill="#633806" x="242" y="116" text-anchor="middle" dominant-baseline="central">Raw ingestion</text>
<rect x="182" y="128" width="120" height="36" rx="6" fill="#fac775" stroke="#854f0b" stroke-width="0.5"/>
<text font-size="14" font-weight="500" fill="#412402" x="242" y="146" text-anchor="middle" dominant-baseline="central">ddl_bronze.sql</text>
<rect x="182" y="170" width="120" height="22" rx="6" fill="#fac775" stroke="#854f0b" stroke-width="0.5"/>
<text font-size="12" fill="#412402" x="242" y="181" text-anchor="middle" dominant-baseline="central">proc_load_bronze</text>

<line x1="316" y1="139" x2="360" y2="139" stroke="#ba7517" stroke-width="1.5" marker-end="url(#arrow)" fill="none"/>
<text font-size="12" fill="#5f5e5a" x="338" y="131" text-anchor="middle">BULK</text>
<text font-size="12" fill="#5f5e5a" x="338" y="153" text-anchor="middle">INSERT</text>

<rect x="360" y="78" width="148" height="122" rx="12" fill="#e1f5ee" stroke="#0f6e56" stroke-width="0.5"/>
<text font-size="14" font-weight="500" fill="#04342c" x="434" y="100" text-anchor="middle" dominant-baseline="central">Silver</text>
<text font-size="12" fill="#085041" x="434" y="116" text-anchor="middle" dominant-baseline="central">Cleanse · conform</text>
<rect x="374" y="128" width="120" height="36" rx="6" fill="#5dcaa5" stroke="#0f6e56" stroke-width="0.5"/>
<text font-size="14" font-weight="500" fill="#04342c" x="434" y="146" text-anchor="middle" dominant-baseline="central">ddl_silver.sql</text>
<rect x="374" y="170" width="120" height="22" rx="6" fill="#5dcaa5" stroke="#0f6e56" stroke-width="0.5"/>
<text font-size="12" fill="#04342c" x="434" y="181" text-anchor="middle" dominant-baseline="central">proc_load_silver</text>

<line x1="508" y1="139" x2="552" y2="139" stroke="#0f6e56" stroke-width="1.5" marker-end="url(#arrow)" fill="none"/>
<text font-size="12" fill="#5f5e5a" x="530" y="131" text-anchor="middle">ETL</text>
<text font-size="12" fill="#5f5e5a" x="530" y="153" text-anchor="middle">transform</text>

<rect x="552" y="78" width="108" height="122" rx="12" fill="#eeedfe" stroke="#534ab7" stroke-width="0.5"/>
<text font-size="14" font-weight="500" fill="#26215c" x="606" y="100" text-anchor="middle" dominant-baseline="central">Gold</text>
<text font-size="12" fill="#3c3489" x="606" y="116" text-anchor="middle" dominant-baseline="central">Star schema</text>
<rect x="562" y="128" width="88" height="30" rx="6" fill="#afa9ec" stroke="#534ab7" stroke-width="0.5"/>
<text font-size="12" fill="#26215c" x="606" y="143" text-anchor="middle" dominant-baseline="central">dim_customers</text>
<rect x="562" y="162" width="88" height="30" rx="6" fill="#afa9ec" stroke="#534ab7" stroke-width="0.5"/>
<text font-size="12" fill="#26215c" x="606" y="177" text-anchor="middle" dominant-baseline="central">dim_products</text>

<rect x="536" y="218" width="140" height="36" rx="8" fill="#afa9ec" stroke="#534ab7" stroke-width="0.5"/>
<text font-size="14" font-weight="500" fill="#26215c" x="606" y="236" text-anchor="middle" dominant-baseline="central">fact_sales</text>
<line x1="606" y1="200" x2="606" y2="218" stroke="#534ab7" stroke-width="1.5" marker-end="url(#arrow)" fill="none"/>

<line x1="40" y1="288" x2="640" y2="288" stroke="#d3d1c7" stroke-width="0.5" stroke-dasharray="4 4"/>
<text font-size="12" fill="#5f5e5a" x="340" y="300" text-anchor="middle">Quality checks</text>

<rect x="80" y="314" width="148" height="52" rx="8" fill="#faeeda" stroke="#854f0b" stroke-width="0.5"/>
<text font-size="14" font-weight="500" fill="#412402" x="154" y="336" text-anchor="middle" dominant-baseline="central">Silver checks</text>
<text font-size="12" fill="#633806" x="154" y="354" text-anchor="middle" dominant-baseline="central">NULL · dupes · dates</text>

<rect x="260" y="314" width="168" height="52" rx="8" fill="#eeedfe" stroke="#534ab7" stroke-width="0.5"/>
<text font-size="14" font-weight="500" fill="#26215c" x="344" y="336" text-anchor="middle" dominant-baseline="central">Gold checks</text>
<text font-size="12" fill="#3c3489" x="344" y="354" text-anchor="middle" dominant-baseline="central">Keys · referential integrity</text>

<line x1="154" y1="314" x2="242" y2="200" stroke="#ba7517" stroke-width="1" stroke-dasharray="4 3" marker-end="url(#arrow)" fill="none"/>
<line x1="334" y1="314" x2="580" y2="256" stroke="#534ab7" stroke-width="1" stroke-dasharray="4 3" marker-end="url(#arrow)" fill="none"/>

<text font-size="12" fill="#5f5e5a" x="340" y="425" text-anchor="middle">Consumers</text>

<rect x="120" y="438" width="120" height="44" rx="8" fill="#f1efe8" stroke="#5f5e5a" stroke-width="0.5"/>
<text font-size="14" font-weight="500" fill="#2c2c2a" x="180" y="455" text-anchor="middle" dominant-baseline="central">Tableau</text>
<text font-size="12" fill="#5f5e5a" x="180" y="471" text-anchor="middle" dominant-baseline="central">Power BI</text>

<rect x="280" y="438" width="120" height="44" rx="8" fill="#f1efe8" stroke="#5f5e5a" stroke-width="0.5"/>
<text font-size="14" font-weight="500" fill="#2c2c2a" x="340" y="455" text-anchor="middle" dominant-baseline="central">SQL queries</text>
<text font-size="12" fill="#5f5e5a" x="340" y="471" text-anchor="middle" dominant-baseline="central">Ad hoc analysis</text>

<rect x="440" y="438" width="120" height="44" rx="8" fill="#f1efe8" stroke="#5f5e5a" stroke-width="0.5"/>
<text font-size="14" font-weight="500" fill="#2c2c2a" x="500" y="455" text-anchor="middle" dominant-baseline="central">ML models</text>
<text font-size="12" fill="#5f5e5a" x="500" y="471" text-anchor="middle" dominant-baseline="central">Feature store</text>

<line x1="590" y1="254" x2="180" y2="438" stroke="#534ab7" stroke-width="1" marker-end="url(#arrow)" fill="none"/>
<line x1="606" y1="254" x2="340" y2="438" stroke="#534ab7" stroke-width="1" marker-end="url(#arrow)" fill="none"/>
<line x1="622" y1="254" x2="500" y2="438" stroke="#534ab7" stroke-width="1" marker-end="url(#arrow)" fill="none"/>

<rect x="40" y="530" width="12" height="12" rx="2" fill="#fac775" stroke="#854f0b" stroke-width="0.5"/>
<text font-size="12" fill="#5f5e5a" x="58" y="541">Bronze — raw</text>
<rect x="150" y="530" width="12" height="12" rx="2" fill="#5dcaa5" stroke="#0f6e56" stroke-width="0.5"/>
<text font-size="12" fill="#5f5e5a" x="168" y="541">Silver — cleansed</text>
<rect x="280" y="530" width="12" height="12" rx="2" fill="#afa9ec" stroke="#534ab7" stroke-width="0.5"/>
<text font-size="12" fill="#5f5e5a" x="298" y="541">Gold — business-ready</text>
<rect x="440" y="530" width="12" height="12" rx="2" fill="#f1efe8" stroke="#5f5e5a" stroke-width="0.5"/>
<text font-size="12" fill="#5f5e5a" x="458" y="541">Sources / consumers</text>

</svg>
